<?xml version="1.0" encoding="utf-8"?>
<!-- Generator: Adobe Illustrator 18.0.0, SVG Export Plug-In . SVG Version: 6.00 Build 0)  -->
<!DOCTYPE svg PUBLIC "-//W3C//DTD SVG 1.1//EN" "http://www.w3.org/Graphics/SVG/1.1/DTD/svg11.dtd">
<svg version="1.1" id="Слой_1" xmlns="http://www.w3.org/2000/svg" xmlns:xlink="http://www.w3.org/1999/xlink" x="0px" y="0px"
	 viewBox="0 0 249.7 65.5" enable-background="new 0 0 249.7 65.5" xml:space="preserve">
<g>
	<g>
		<defs>
			<rect id="SVGID_1_" width="249.7" height="65.5"/>
		</defs>
		<clipPath id="SVGID_2_">
			<use xlink:href="#SVGID_1_"  overflow="visible"/>
		</clipPath>
		<g clip-path="url(#SVGID_2_)">
			<defs>
				<rect id="SVGID_3_" x="-595" y="-45.3" width="1440" height="3812"/>
			</defs>
			<clipPath id="SVGID_4_">
				<use xlink:href="#SVGID_3_"  overflow="visible"/>
			</clipPath>
			<g clip-path="url(#SVGID_4_)" enable-background="new    ">
				<g>
					<defs>
						<rect id="SVGID_5_" x="0" y="15.7" width="36" height="36"/>
					</defs>
					<clipPath id="SVGID_6_">
						<use xlink:href="#SVGID_5_"  overflow="visible"/>
					</clipPath>
					<g clip-path="url(#SVGID_6_)">
						<defs>
							<path id="SVGID_7_" d="M15.4,29.5h20.2V15.9H20.5c-6.3,0-11.4,5.1-11.4,11.4l0,19.6H4.6V36.3c0-2.3,1.1-4.3,2.8-5.5v-3.6
								c0-0.5,0-1.1,0.1-1.6C3.1,27.3,0,31.4,0,36.3v15.1h13.7V27.2c0-3.8,3.1-6.8,6.8-6.8h10.6V25H16.2c-0.5,0.5-0.7,1.4-0.7,2.3
								V29.5z"/>
						</defs>
						<clipPath id="SVGID_8_">
							<use xlink:href="#SVGID_7_"  overflow="visible"/>
						</clipPath>
						<g clip-path="url(#SVGID_8_)">
							<defs>
								<rect id="SVGID_9_" x="0" y="15.7" width="36" height="36"/>
							</defs>
							<clipPath id="SVGID_10_">
								<use xlink:href="#SVGID_9_"  overflow="visible"/>
							</clipPath>
							<rect x="-5" y="10.9" clip-path="url(#SVGID_10_)" fill="#925042" width="45.7" height="45.5"/>
						</g>
					</g>
				</g>
			</g>
		</g>
	</g>
	<g>
		<defs>
			<path id="SVGID_11_" d="M33.9,51.4H13.7v13.6h15.1c6.3,0,11.4-5.1,11.4-11.4V34.1h4.6v10.5c0,2.3-1.1,4.3-2.8,5.5v3.6
				c0,0.5,0,1.1-0.1,1.6c4.4-1.6,7.5-5.8,7.5-10.7V29.5H35.7v24.2c0,3.8-3.1,6.8-6.8,6.8H18.3V56h14.9c0.5-0.5,0.7-1.4,0.7-2.3V51.4
				z"/>
		</defs>
		<clipPath id="SVGID_12_">
			<use xlink:href="#SVGID_11_"  overflow="visible"/>
		</clipPath>
		<g clip-path="url(#SVGID_12_)">
			<defs>
				<rect id="SVGID_13_" x="-595" y="-45.3" width="1440" height="3812"/>
			</defs>
			<clipPath id="SVGID_14_">
				<use xlink:href="#SVGID_13_"  overflow="visible"/>
			</clipPath>
			<rect x="8.7" y="24.5" clip-path="url(#SVGID_14_)" fill="#925042" width="45.7" height="45.5"/>
		</g>
	</g>
	<g>
		<defs>
			<polygon id="SVGID_15_" points="92.7,59.3 92.7,59.3 85.9,36.2 81.4,36.2 74.5,59.3 74.5,59.3 68.1,36.2 64,36.2 72.4,65.1 
				76.6,65.1 83.6,41.5 83.6,41.5 90.6,65.1 94.8,65.1 103.2,36.2 99.1,36.2 			"/>
		</defs>
		<clipPath id="SVGID_16_">
			<use xlink:href="#SVGID_15_"  overflow="visible"/>
		</clipPath>
		<g clip-path="url(#SVGID_16_)">
			<defs>
				<rect id="SVGID_17_" x="-595" y="-45.3" width="1440" height="3812"/>
			</defs>
			<clipPath id="SVGID_18_">
				<use xlink:href="#SVGID_17_"  overflow="visible"/>
			</clipPath>
			<rect x="59" y="31.2" clip-path="url(#SVGID_18_)" fill="#6B6D70" width="49.3" height="38.9"/>
		</g>
	</g>
	<g>
		<defs>
			<path id="SVGID_19_" d="M107.8,36.1c-0.7,0-1.4,0.3-1.9,0.8c-0.5,0.5-0.8,1.2-0.8,1.9c0,0.7,0.3,1.4,0.8,1.9
				c0.5,0.5,1.2,0.8,1.9,0.8c0.7,0,1.4-0.3,1.9-0.8c0.5-0.5,0.8-1.2,0.8-1.9c0-0.7-0.3-1.4-0.8-1.9
				C109.1,36.4,108.5,36.1,107.8,36.1"/>
		</defs>
		<clipPath id="SVGID_20_">
			<use xlink:href="#SVGID_19_"  overflow="visible"/>
		</clipPath>
		<g clip-path="url(#SVGID_20_)">
			<defs>
				<rect id="SVGID_21_" x="-595" y="-45.3" width="1440" height="3812"/>
			</defs>
			<clipPath id="SVGID_22_">
				<use xlink:href="#SVGID_21_"  overflow="visible"/>
			</clipPath>
			<rect x="100.1" y="31.1" clip-path="url(#SVGID_22_)" fill="#6B6D70" width="15.4" height="15.4"/>
		</g>
	</g>
	<g>
		<defs>
			<polygon id="SVGID_23_" points="105.9,65.1 109.6,65.1 109.6,45.7 105.9,45.7 105.9,61.5 			"/>
		</defs>
		<clipPath id="SVGID_24_">
			<use xlink:href="#SVGID_23_"  overflow="visible"/>
		</clipPath>
		<g clip-path="url(#SVGID_24_)">
			<defs>
				<rect id="SVGID_25_" x="-595" y="-45.3" width="1440" height="3812"/>
			</defs>
			<clipPath id="SVGID_26_">
				<use xlink:href="#SVGID_25_"  overflow="visible"/>
			</clipPath>
			<rect x="100.9" y="40.7" clip-path="url(#SVGID_26_)" fill="#6B6D70" width="13.7" height="29.3"/>
		</g>
	</g>
	<g>
		<defs>
			<polygon id="SVGID_27_" points="114,65.1 117.7,65.1 117.7,36.2 114,36.2 114,61.5 			"/>
		</defs>
		<clipPath id="SVGID_28_">
			<use xlink:href="#SVGID_27_"  overflow="visible"/>
		</clipPath>
		<g clip-path="url(#SVGID_28_)">
			<defs>
				<rect id="SVGID_29_" x="-595" y="-45.3" width="1440" height="3812"/>
			</defs>
			<clipPath id="SVGID_30_">
				<use xlink:href="#SVGID_29_"  overflow="visible"/>
			</clipPath>
			<rect x="109" y="31.2" clip-path="url(#SVGID_30_)" fill="#6B6D70" width="13.7" height="38.9"/>
		</g>
	</g>
	<g>
		<defs>
			<polygon id="SVGID_31_" points="122,65.1 125.7,65.1 125.7,36.2 122,36.2 122,61.5 			"/>
		</defs>
		<clipPath id="SVGID_32_">
			<use xlink:href="#SVGID_31_"  overflow="visible"/>
		</clipPath>
		<g clip-path="url(#SVGID_32_)">
			<defs>
				<rect id="SVGID_33_" x="-595" y="-45.3" width="1440" height="3812"/>
			</defs>
			<clipPath id="SVGID_34_">
				<use xlink:href="#SVGID_33_"  overflow="visible"/>
			</clipPath>
			<rect x="117" y="31.2" clip-path="url(#SVGID_34_)" fill="#6B6D70" width="13.7" height="38.9"/>
		</g>
	</g>
	<g>
		<defs>
			<path id="SVGID_35_" d="M131.9,36.1c-0.7,0-1.4,0.3-1.9,0.8c-0.5,0.5-0.8,1.2-0.8,1.9c0,0.7,0.3,1.4,0.8,1.9
				c0.5,0.5,1.2,0.8,1.9,0.8c0.7,0,1.4-0.3,1.9-0.8c0.5-0.5,0.8-1.2,0.8-1.9c0-0.7-0.3-1.4-0.8-1.9
				C133.3,36.4,132.7,36.1,131.9,36.1"/>
		</defs>
		<clipPath id="SVGID_36_">
			<use xlink:href="#SVGID_35_"  overflow="visible"/>
		</clipPath>
		<g clip-path="url(#SVGID_36_)">
			<defs>
				<rect id="SVGID_37_" x="-595" y="-45.3" width="1440" height="3812"/>
			</defs>
			<clipPath id="SVGID_38_">
				<use xlink:href="#SVGID_37_"  overflow="visible"/>
			</clipPath>
			<rect x="124.2" y="31.1" clip-path="url(#SVGID_38_)" fill="#6B6D70" width="15.4" height="15.4"/>
		</g>
	</g>
	<g>
		<defs>
			<polygon id="SVGID_39_" points="130.1,65.1 133.8,65.1 133.8,45.7 130.1,45.7 130.1,61.5 			"/>
		</defs>
		<clipPath id="SVGID_40_">
			<use xlink:href="#SVGID_39_"  overflow="visible"/>
		</clipPath>
		<g clip-path="url(#SVGID_40_)">
			<defs>
				<rect id="SVGID_41_" x="-595" y="-45.3" width="1440" height="3812"/>
			</defs>
			<clipPath id="SVGID_42_">
				<use xlink:href="#SVGID_41_"  overflow="visible"/>
			</clipPath>
			<rect x="125.1" y="40.7" clip-path="url(#SVGID_42_)" fill="#6B6D70" width="13.7" height="29.3"/>
		</g>
	</g>
	<g>
		<defs>
			<path id="SVGID_43_" d="M154.3,61.6v-9.9c0-0.8-0.2-1.6-0.5-2.4c-0.3-0.8-0.8-1.5-1.5-2.1c-0.7-0.6-1.5-1.1-2.5-1.4
				c-1-0.4-2.2-0.5-3.7-0.5c-1.4,0-2.7,0.2-4.1,0.7c-1.4,0.5-2.6,1.2-3.6,2.1l2.2,2.3c0.3-0.2,0.7-0.5,1-0.8
				c0.4-0.3,0.8-0.5,1.2-0.7c0.4-0.2,0.9-0.4,1.5-0.5c0.5-0.1,1.2-0.2,1.9-0.2c0.8,0,1.5,0.1,2,0.3c0.6,0.2,1,0.5,1.4,0.9
				c0.4,0.4,0.7,0.8,0.9,1.3c0.2,0.5,0.3,1,0.3,1.5v0.8h-2.7c-1.5,0-2.9,0.1-4.2,0.3c-1.3,0.2-2.4,0.6-3.4,1.1
				c-1,0.5-1.7,1.2-2.3,2.1c-0.6,0.8-0.8,1.9-0.8,3.1c0,1,0.2,1.8,0.5,2.5c0.4,0.7,0.8,1.3,1.5,1.8c0.6,0.5,1.3,0.9,2.1,1.1
				c0.8,0.2,1.7,0.4,2.6,0.4c1.5,0,2.8-0.3,3.9-0.8c1.1-0.5,2.1-1.4,2.9-2.7h0.1c0,1,0,2,0.1,2.9h3.3c-0.1-0.5-0.1-1.1-0.1-1.6
				C154.3,62.9,154.3,62.2,154.3,61.6z M150.9,57c0,0.7-0.1,1.3-0.3,2c-0.2,0.7-0.5,1.3-0.9,1.8c-0.4,0.5-1,1-1.7,1.3
				c-0.7,0.3-1.6,0.5-2.6,0.5c-1.3,0-2.3-0.2-3-0.7c-0.8-0.5-1.1-1.3-1.1-2.4c0-0.8,0.2-1.4,0.7-1.9c0.5-0.5,1.1-0.9,1.8-1.1
				c0.7-0.3,1.6-0.5,2.5-0.6c0.9-0.1,1.8-0.1,2.7-0.1h2V57z"/>
		</defs>
		<clipPath id="SVGID_44_">
			<use xlink:href="#SVGID_43_"  overflow="visible"/>
		</clipPath>
		<g clip-path="url(#SVGID_44_)">
			<defs>
				<rect id="SVGID_45_" x="-595" y="-45.3" width="1440" height="3812"/>
			</defs>
			<clipPath id="SVGID_46_">
				<use xlink:href="#SVGID_45_"  overflow="visible"/>
			</clipPath>
			<rect x="132.5" y="40.2" clip-path="url(#SVGID_46_)" fill="#6B6D70" width="27" height="30.3"/>
		</g>
	</g>
	<g>
		<defs>
			<path id="SVGID_47_" d="M186.1,47.9c-0.5-0.8-1.3-1.4-2.2-1.9c-1-0.5-2.2-0.7-3.7-0.7c-1.2,0-2.3,0.3-3.5,0.9
				c-1.1,0.6-2,1.5-2.7,2.7c-0.6-1.2-1.4-2.1-2.4-2.7c-1-0.6-2.2-0.9-3.6-0.9c-0.9,0-1.7,0.1-2.4,0.4c-0.7,0.3-1.4,0.6-1.9,0.9
				c-0.5,0.4-1,0.8-1.3,1.2c-0.3,0.4-0.6,0.7-0.6,1h-0.1v-3h-3.4v19.3h3.7V55c0-1.1,0.1-2,0.4-2.8c0.3-0.8,0.6-1.5,1.1-2
				c0.5-0.5,1-0.9,1.6-1.2c0.6-0.3,1.2-0.4,1.9-0.4c0.9,0,1.6,0.2,2.1,0.5c0.5,0.3,0.9,0.7,1.2,1.3c0.3,0.6,0.5,1.2,0.6,2
				c0.1,0.8,0.1,1.6,0.1,2.5v10.1h3.7V54.5c0-1.7,0.4-3.1,1.1-4.2c0.8-1.1,2-1.6,3.8-1.6c0.9,0,1.6,0.2,2.2,0.5
				c0.5,0.3,1,0.7,1.3,1.2c0.3,0.5,0.5,1.1,0.6,1.8c0.1,0.7,0.1,1.4,0.1,2.1v10.8h3.7V53.8c0-1.1-0.1-2.1-0.3-3.2
				C187.1,49.6,186.7,48.7,186.1,47.9"/>
		</defs>
		<clipPath id="SVGID_48_">
			<use xlink:href="#SVGID_47_"  overflow="visible"/>
		</clipPath>
		<g clip-path="url(#SVGID_48_)">
			<defs>
				<rect id="SVGID_49_" x="-595" y="-45.3" width="1440" height="3812"/>
			</defs>
			<clipPath id="SVGID_50_">
				<use xlink:href="#SVGID_49_"  overflow="visible"/>
			</clipPath>
			<rect x="153.3" y="40.2" clip-path="url(#SVGID_50_)" fill="#6B6D70" width="39.3" height="29.8"/>
		</g>
	</g>
	<g>
		<defs>
			<polyline id="SVGID_51_" points="0,65.5 249.7,65.5 249.7,0 0,0 			"/>
		</defs>
		<clipPath id="SVGID_52_">
			<use xlink:href="#SVGID_51_"  overflow="visible"/>
		</clipPath>
		<g clip-path="url(#SVGID_52_)">
			<defs>
				<rect id="SVGID_53_" x="-595" y="-45.3" width="1440" height="3812"/>
			</defs>
			<clipPath id="SVGID_54_">
				<use xlink:href="#SVGID_53_"  overflow="visible"/>
			</clipPath>
			<g clip-path="url(#SVGID_54_)" enable-background="new    ">
				<g>
					<defs>
						<rect id="SVGID_55_" x="190" y="44.7" width="17" height="21"/>
					</defs>
					<clipPath id="SVGID_56_">
						<use xlink:href="#SVGID_55_"  overflow="visible"/>
					</clipPath>
					<g clip-path="url(#SVGID_56_)">
						<defs>
							<path id="SVGID_57_" d="M204.5,55.6c-0.5-0.4-1.1-0.8-1.8-1.1c-0.7-0.3-1.4-0.5-2.2-0.7c-0.4-0.1-0.9-0.2-1.5-0.3
								c-0.6-0.1-1.1-0.3-1.6-0.5c-0.5-0.2-0.9-0.5-1.3-0.9c-0.4-0.4-0.6-0.8-0.6-1.4c0-0.7,0.3-1.2,1-1.6c0.6-0.4,1.4-0.5,2.3-0.5
								c0.9,0,1.7,0.2,2.4,0.5c0.6,0.4,1.2,0.8,1.6,1.4l2.9-2.2c-0.7-1.1-1.7-2-2.9-2.4c-1.2-0.5-2.5-0.7-3.8-0.7
								c-0.9,0-1.8,0.1-2.7,0.4c-0.9,0.2-1.7,0.6-2.4,1.1c-0.7,0.5-1.3,1.1-1.7,1.9c-0.4,0.7-0.6,1.6-0.6,2.6c0,0.9,0.2,1.7,0.5,2.3
								c0.3,0.6,0.8,1.1,1.3,1.6c0.5,0.4,1.2,0.7,1.9,1c0.7,0.2,1.5,0.5,2.2,0.7c0.4,0.1,0.9,0.2,1.4,0.3c0.5,0.1,1,0.3,1.5,0.5
								c0.5,0.2,0.9,0.5,1.2,0.8c0.3,0.4,0.5,0.8,0.5,1.3c0,0.4-0.1,0.8-0.3,1.1c-0.2,0.3-0.5,0.6-0.9,0.8c-0.4,0.2-0.8,0.4-1.3,0.4
								c-0.5,0.1-0.9,0.1-1.4,0.1c-1.1,0-2-0.2-2.7-0.7c-0.7-0.5-1.4-1-2-1.6l-2.8,2.3c1,1.3,2,2.2,3.3,2.7c1.2,0.5,2.6,0.7,4.2,0.7
								c1,0,1.9-0.1,2.8-0.3c0.9-0.2,1.8-0.6,2.5-1.1c0.7-0.5,1.3-1.1,1.8-1.9c0.5-0.8,0.7-1.7,0.7-2.8c0-0.9-0.1-1.7-0.4-2.3
								C205.4,56.6,205,56,204.5,55.6"/>
						</defs>
						<clipPath id="SVGID_58_">
							<use xlink:href="#SVGID_57_"  overflow="visible"/>
						</clipPath>
						<g clip-path="url(#SVGID_58_)">
							<defs>
								<rect id="SVGID_59_" x="190" y="44.7" width="17" height="21"/>
							</defs>
							<clipPath id="SVGID_60_">
								<use xlink:href="#SVGID_59_"  overflow="visible"/>
							</clipPath>
							<rect x="185.8" y="40.2" clip-path="url(#SVGID_60_)" fill="#6B6D70" width="25.3" height="30.3"/>
						</g>
					</g>
				</g>
			</g>
		</g>
	</g>
	<g>
		<defs>
			<polyline id="SVGID_61_" points="0,65.5 249.7,65.5 249.7,0 0,0 			"/>
		</defs>
		<clipPath id="SVGID_62_">
			<use xlink:href="#SVGID_61_"  overflow="visible"/>
		</clipPath>
		<g clip-path="url(#SVGID_62_)">
			<defs>
				<rect id="SVGID_63_" x="-595" y="-45.3" width="1440" height="3812"/>
			</defs>
			<clipPath id="SVGID_64_">
				<use xlink:href="#SVGID_63_"  overflow="visible"/>
			</clipPath>
			<g clip-path="url(#SVGID_64_)" enable-background="new    ">
				<g>
					<defs>
						<rect id="SVGID_65_" x="208" y="44.7" width="22" height="21"/>
					</defs>
					<clipPath id="SVGID_66_">
						<use xlink:href="#SVGID_65_"  overflow="visible"/>
					</clipPath>
					<g clip-path="url(#SVGID_66_)">
						<defs>
							<path id="SVGID_67_" d="M226.1,48.2c-0.9-0.9-2-1.6-3.3-2.2c-1.3-0.5-2.6-0.8-4-0.8c-1.4,0-2.8,0.3-4,0.8
								c-1.3,0.5-2.3,1.3-3.3,2.2c-0.9,0.9-1.7,2-2.2,3.2c-0.5,1.2-0.8,2.5-0.8,4c0,1.4,0.3,2.7,0.8,4c0.5,1.2,1.3,2.3,2.2,3.2
								c0.9,0.9,2,1.6,3.3,2.2c1.3,0.5,2.6,0.8,4,0.8c1.4,0,2.8-0.3,4-0.8c1.3-0.5,2.3-1.2,3.3-2.2c0.9-0.9,1.7-2,2.2-3.2
								c0.5-1.2,0.8-2.6,0.8-4c0-1.4-0.3-2.7-0.8-4C227.7,50.2,227,49.1,226.1,48.2 M224.7,58.1c-0.3,0.8-0.7,1.5-1.3,2.1
								c-0.5,0.6-1.2,1-2,1.4c-0.8,0.3-1.7,0.5-2.7,0.5c-1,0-1.9-0.2-2.7-0.5c-0.8-0.3-1.5-0.8-2-1.4c-0.5-0.6-1-1.3-1.3-2.1
								c-0.3-0.8-0.4-1.7-0.4-2.7c0-1,0.1-1.9,0.4-2.7c0.3-0.8,0.7-1.5,1.3-2.1c0.5-0.6,1.2-1,2-1.4c0.8-0.3,1.7-0.5,2.7-0.5
								c1,0,1.9,0.2,2.7,0.5c0.8,0.3,1.5,0.8,2,1.4c0.5,0.6,1,1.3,1.3,2.1c0.3,0.8,0.4,1.7,0.4,2.7C225.2,56.4,225,57.3,224.7,58.1"
								/>
						</defs>
						<clipPath id="SVGID_68_">
							<use xlink:href="#SVGID_67_"  overflow="visible"/>
						</clipPath>
						<g clip-path="url(#SVGID_68_)">
							<defs>
								<rect id="SVGID_69_" x="208" y="44.7" width="22" height="21"/>
							</defs>
							<clipPath id="SVGID_70_">
								<use xlink:href="#SVGID_69_"  overflow="visible"/>
							</clipPath>
							<rect x="203.5" y="40.2" clip-path="url(#SVGID_70_)" fill="#6B6D70" width="30.6" height="30.3"/>
						</g>
					</g>
				</g>
			</g>
		</g>
	</g>
	<g>
		<defs>
			<path id="SVGID_71_" d="M249.2,49.3c-0.4-0.9-0.9-1.7-1.5-2.3c-0.6-0.6-1.4-1-2.2-1.3c-0.9-0.3-1.8-0.4-2.7-0.4
				c-1.5,0-2.8,0.3-4,1c-1.1,0.6-1.9,1.5-2.4,2.5h-0.1v-3h-3.7v19.3h3.7v-9.9c0-1.1,0.1-2.1,0.4-2.9c0.3-0.8,0.7-1.5,1.1-2
				c0.5-0.5,1.1-0.9,1.7-1.2c0.7-0.2,1.4-0.4,2.1-0.4c0.6,0,1.1,0.1,1.7,0.3c0.5,0.2,1,0.5,1.4,0.9c0.4,0.4,0.7,0.9,1,1.5
				c0.2,0.6,0.4,1.4,0.4,2.3v11.4h3.7V52.6C249.7,51.4,249.5,50.2,249.2,49.3"/>
		</defs>
		<clipPath id="SVGID_72_">
			<use xlink:href="#SVGID_71_"  overflow="visible"/>
		</clipPath>
		<g clip-path="url(#SVGID_72_)">
			<defs>
				<rect id="SVGID_73_" x="-595" y="-45.3" width="1440" height="3812"/>
			</defs>
			<clipPath id="SVGID_74_">
				<use xlink:href="#SVGID_73_"  overflow="visible"/>
			</clipPath>
			<rect x="227.6" y="40.2" clip-path="url(#SVGID_74_)" fill="#6B6D70" width="27.2" height="29.8"/>
		</g>
	</g>
	<g>
		<defs>
			<path id="SVGID_75_" d="M70.6,25.4c-0.6,0.4-1.2,0.7-1.9,0.9c-0.7,0.2-1.4,0.3-2,0.3c-1.2,0-2.3-0.3-3.4-0.8
				c-1.1-0.5-2-1.3-2.7-2.3l-3.2,2.8c1,1.4,2.3,2.4,4,3c1.7,0.7,3.4,1,5.3,1c1.4,0,2.7-0.2,3.9-0.6c1.2-0.4,2.3-1,3.2-1.8
				c0.9-0.8,1.6-1.7,2.1-2.8c0.5-1.1,0.8-2.4,0.8-3.7c0-1.7-0.4-3.1-1.1-4.1c-0.7-1-1.6-1.8-2.6-2.4c-1-0.6-2.2-1-3.4-1.4
				c-1.2-0.3-2.4-0.7-3.4-1.1c-1-0.4-1.9-0.9-2.6-1.6c-0.7-0.7-1.1-1.6-1.1-2.8c0-0.4,0.1-0.9,0.3-1.4c0.2-0.5,0.5-1,0.9-1.4
				c0.4-0.4,1-0.8,1.7-1.1C66,3.8,66.9,3.7,68,3.7c1.1,0,2.2,0.2,3.1,0.7c0.9,0.5,1.6,1.1,2.1,1.8l3.2-2.9C75.3,2,74,1.1,72.5,0.7
				C71.1,0.2,69.6,0,68,0c-1.7,0-3.2,0.3-4.5,0.8c-1.2,0.5-2.3,1.2-3,2c-0.8,0.8-1.4,1.7-1.7,2.6c-0.4,1-0.6,1.8-0.6,2.7
				c0,1.9,0.4,3.4,1.1,4.5c0.7,1.1,1.6,2,2.6,2.6c1.1,0.7,2.2,1.2,3.4,1.5c1.2,0.4,2.4,0.8,3.4,1.1c1,0.4,1.9,0.9,2.6,1.5
				c0.7,0.6,1.1,1.4,1.1,2.5c0,0.8-0.2,1.5-0.5,2.1C71.6,24.5,71.1,25,70.6,25.4"/>
		</defs>
		<clipPath id="SVGID_76_">
			<use xlink:href="#SVGID_75_"  overflow="visible"/>
		</clipPath>
		<g clip-path="url(#SVGID_76_)">
			<defs>
				<rect id="SVGID_77_" x="-595" y="-45.3" width="1440" height="3812"/>
			</defs>
			<clipPath id="SVGID_78_">
				<use xlink:href="#SVGID_77_"  overflow="visible"/>
			</clipPath>
			<rect x="52.3" y="-5" clip-path="url(#SVGID_78_)" fill="#6B6D70" width="29.3" height="40.3"/>
		</g>
	</g>
	<g>
		<defs>
			<path id="SVGID_79_" d="M109.6,29.6V18.3c0-1.1-0.1-2.1-0.3-3.2c-0.2-1-0.6-1.9-1.1-2.7c-0.5-0.8-1.3-1.4-2.3-1.9
				c-1-0.5-2.2-0.7-3.7-0.7c-1.2,0-2.3,0.3-3.5,0.9c-1.1,0.6-2,1.5-2.7,2.7c-0.6-1.2-1.4-2.1-2.4-2.7c-1-0.6-2.2-0.9-3.6-0.9
				c-0.9,0-1.7,0.1-2.4,0.4c-0.7,0.3-1.4,0.6-1.9,0.9c-0.5,0.4-1,0.8-1.3,1.2c-0.3,0.4-0.6,0.7-0.6,1h-0.1v-3h-3.4v19.3H84v-10
				c0-1.1,0.1-2,0.4-2.8c0.3-0.8,0.6-1.5,1.1-2c0.5-0.5,1-0.9,1.6-1.2c0.6-0.3,1.2-0.4,1.9-0.4c0.9,0,1.6,0.2,2.1,0.5
				c0.5,0.3,0.9,0.7,1.2,1.3c0.3,0.6,0.5,1.2,0.6,2c0.1,0.8,0.1,1.6,0.1,2.5v10.1h3.7V19c0-1.7,0.4-3.1,1.1-4.2
				c0.8-1.1,2-1.6,3.8-1.6c0.9,0,1.6,0.2,2.2,0.5c0.5,0.3,1,0.7,1.3,1.2c0.3,0.5,0.5,1.1,0.6,1.8c0.1,0.7,0.1,1.4,0.1,2.1v10.8
				H109.6z"/>
		</defs>
		<clipPath id="SVGID_80_">
			<use xlink:href="#SVGID_79_"  overflow="visible"/>
		</clipPath>
		<g clip-path="url(#SVGID_80_)">
			<defs>
				<rect id="SVGID_81_" x="-595" y="-45.3" width="1440" height="3812"/>
			</defs>
			<clipPath id="SVGID_82_">
				<use xlink:href="#SVGID_81_"  overflow="visible"/>
			</clipPath>
			<rect x="75.3" y="4.8" clip-path="url(#SVGID_82_)" fill="#6B6D70" width="39.3" height="29.8"/>
		</g>
	</g>
	<g>
		<defs>
			<path id="SVGID_83_" d="M115.8,0.7c-0.7,0-1.4,0.3-1.9,0.8c-0.5,0.5-0.8,1.2-0.8,1.9c0,0.7,0.3,1.4,0.8,1.9
				c0.5,0.5,1.2,0.8,1.9,0.8c0.7,0,1.4-0.3,1.9-0.8c0.5-0.5,0.8-1.2,0.8-1.9c0-0.7-0.3-1.4-0.8-1.9C117.2,0.9,116.6,0.7,115.8,0.7"
				/>
		</defs>
		<clipPath id="SVGID_84_">
			<use xlink:href="#SVGID_83_"  overflow="visible"/>
		</clipPath>
		<g clip-path="url(#SVGID_84_)">
			<defs>
				<rect id="SVGID_85_" x="-595" y="-45.3" width="1440" height="3812"/>
			</defs>
			<clipPath id="SVGID_86_">
				<use xlink:href="#SVGID_85_"  overflow="visible"/>
			</clipPath>
			<rect x="108.1" y="-4.3" clip-path="url(#SVGID_86_)" fill="#6B6D70" width="15.4" height="15.4"/>
		</g>
	</g>
	<g>
		<defs>
			<polygon id="SVGID_87_" points="117.7,10.3 114,10.3 114,26 114,29.6 117.7,29.6 			"/>
		</defs>
		<clipPath id="SVGID_88_">
			<use xlink:href="#SVGID_87_"  overflow="visible"/>
		</clipPath>
		<g clip-path="url(#SVGID_88_)">
			<defs>
				<rect id="SVGID_89_" x="-595" y="-45.3" width="1440" height="3812"/>
			</defs>
			<clipPath id="SVGID_90_">
				<use xlink:href="#SVGID_89_"  overflow="visible"/>
			</clipPath>
			<rect x="109" y="5.3" clip-path="url(#SVGID_90_)" fill="#6B6D70" width="13.7" height="29.3"/>
		</g>
	</g>
	<g>
		<defs>
			<path id="SVGID_91_" d="M134,29.4v-3.3c-0.4,0.2-0.8,0.4-1.3,0.4c-0.5,0.1-0.9,0.1-1.3,0.1c-0.7,0-1.2-0.1-1.6-0.4
				c-0.4-0.3-0.6-0.6-0.8-1c-0.2-0.4-0.3-0.9-0.3-1.4c0-0.5,0-1.1,0-1.6v-8.8h5.3v-3.2h-5.3V4.8h-3.7v5.4h-4.3v3.2h4.3v10.1
				c0,0.8,0,1.6,0.1,2.3c0.1,0.8,0.3,1.5,0.7,2.1c0.4,0.6,0.9,1.1,1.7,1.5c0.8,0.4,1.9,0.6,3.3,0.6c0.4,0,0.9,0,1.6-0.1
				C133,29.8,133.6,29.7,134,29.4"/>
		</defs>
		<clipPath id="SVGID_92_">
			<use xlink:href="#SVGID_91_"  overflow="visible"/>
		</clipPath>
		<g clip-path="url(#SVGID_92_)">
			<defs>
				<rect id="SVGID_93_" x="-595" y="-45.3" width="1440" height="3812"/>
			</defs>
			<clipPath id="SVGID_94_">
				<use xlink:href="#SVGID_93_"  overflow="visible"/>
			</clipPath>
			<rect x="115.7" y="-0.2" clip-path="url(#SVGID_94_)" fill="#6B6D70" width="23.3" height="35.2"/>
		</g>
	</g>
	<g>
		<defs>
			<path id="SVGID_95_" d="M155.4,29.6V17.2c0-1.3-0.2-2.4-0.6-3.3c-0.4-0.9-0.9-1.7-1.5-2.3c-0.6-0.6-1.4-1-2.2-1.3
				c-0.9-0.3-1.8-0.4-2.7-0.4c-1.5,0-2.8,0.3-4,1c-1.1,0.6-2,1.5-2.4,2.5h-0.1V2.4h-3.7v27.2h3.7v-9.9c0-1.1,0.1-2.1,0.4-2.9
				c0.3-0.8,0.7-1.5,1.1-2c0.5-0.5,1.1-0.9,1.7-1.2c0.7-0.2,1.4-0.4,2.1-0.4c0.6,0,1.1,0.1,1.7,0.3c0.5,0.2,1,0.5,1.4,0.9
				c0.4,0.4,0.7,0.9,1,1.5c0.2,0.6,0.4,1.4,0.4,2.3v11.4H155.4z"/>
		</defs>
		<clipPath id="SVGID_96_">
			<use xlink:href="#SVGID_95_"  overflow="visible"/>
		</clipPath>
		<g clip-path="url(#SVGID_96_)">
			<defs>
				<rect id="SVGID_97_" x="-595" y="-45.3" width="1440" height="3812"/>
			</defs>
			<clipPath id="SVGID_98_">
				<use xlink:href="#SVGID_97_"  overflow="visible"/>
			</clipPath>
			<rect x="133.2" y="-2.6" clip-path="url(#SVGID_98_)" fill="#6B6D70" width="27.2" height="37.2"/>
		</g>
	</g>
	<g>
		<defs>
			<path id="SVGID_99_" d="M181.2,18.9h-3.6l-2.3,3.7l-3.2-3.4c0.4-0.2,0.7-0.4,1.1-0.7c0.5-0.3,0.9-0.7,1.3-1.1
				c0.4-0.4,0.7-0.9,1-1.4c0.2-0.5,0.4-1.1,0.4-1.7c0-0.8-0.1-1.4-0.4-2c-0.3-0.6-0.7-1.1-1.1-1.4c-0.5-0.4-1-0.7-1.7-0.9
				c-1.3-0.4-2.7-0.4-4,0c-0.6,0.2-1.2,0.5-1.7,0.9c-0.5,0.4-0.9,0.9-1.2,1.5c-0.3,0.6-0.4,1.3-0.4,2c0,1,0.2,1.8,0.7,2.6
				c0.4,0.6,0.8,1.2,1.3,1.7c-0.5,0.2-0.9,0.5-1.3,0.8c-0.5,0.4-1,0.8-1.4,1.3c-0.4,0.5-0.7,1-1,1.6c-0.2,0.6-0.4,1.2-0.4,1.9
				c0,0.7,0.1,1.4,0.4,2.1c0.3,0.7,0.7,1.3,1.2,1.9c0.5,0.5,1.2,1,2,1.3c0.8,0.3,1.8,0.5,2.9,0.5c1.3,0,2.5-0.3,3.4-0.8
				c0.9-0.5,1.7-1.2,2.4-2l2.2,2.4h4.3l-4.6-4.7L181.2,18.9z M170.9,27c-0.7,0.3-1.7,0.3-2.4,0c-0.4-0.2-0.7-0.4-1.1-0.7
				c-0.3-0.3-0.6-0.6-0.7-1c-0.2-0.4-0.3-0.8-0.3-1.2c0-0.4,0.1-0.8,0.3-1.2c0.2-0.4,0.4-0.7,0.7-1c0.3-0.3,0.6-0.6,1-0.8
				c0.3-0.2,0.6-0.4,0.9-0.6l4.3,4.4c-0.2,0.2-0.4,0.5-0.6,0.7c-0.3,0.3-0.6,0.5-0.9,0.7C171.7,26.7,171.3,26.9,170.9,27z
				 M168.9,16.1c-0.2-0.2-0.3-0.5-0.4-0.8c-0.1-0.2-0.2-0.5-0.2-0.8c0-0.6,0.2-1.1,0.6-1.4c0.5-0.3,1-0.5,1.6-0.5
				c0.6,0,1.1,0.2,1.5,0.5c0.4,0.3,0.5,0.7,0.5,1.3c0,0.4-0.1,0.7-0.2,1c-0.2,0.3-0.4,0.6-0.7,0.8c-0.3,0.3-0.6,0.5-0.9,0.7
				c-0.3,0.2-0.5,0.3-0.8,0.5c-0.2-0.2-0.3-0.3-0.5-0.5C169.3,16.5,169.1,16.3,168.9,16.1z"/>
		</defs>
		<clipPath id="SVGID_100_">
			<use xlink:href="#SVGID_99_"  overflow="visible"/>
		</clipPath>
		<g clip-path="url(#SVGID_100_)">
			<defs>
				<rect id="SVGID_101_" x="-595" y="-45.3" width="1440" height="3812"/>
			</defs>
			<clipPath id="SVGID_102_">
				<use xlink:href="#SVGID_101_"  overflow="visible"/>
			</clipPath>
			<rect x="158.1" y="4.7" clip-path="url(#SVGID_102_)" fill="#6B6D70" width="28.8" height="30.3"/>
		</g>
	</g>
</g>
</svg>
