<?xml version="1.0" encoding="utf-8"?>
<!-- Generator: Adobe Illustrator 18.0.0, SVG Export Plug-In . SVG Version: 6.00 Build 0)  -->
<!DOCTYPE svg PUBLIC "-//W3C//DTD SVG 1.1//EN" "http://www.w3.org/Graphics/SVG/1.1/DTD/svg11.dtd">
<svg version="1.1" id="Слой_1" xmlns="http://www.w3.org/2000/svg" xmlns:xlink="http://www.w3.org/1999/xlink" x="0px" y="0px"
	 viewBox="0 0 72.8 79.1" enable-background="new 0 0 72.8 79.1" xml:space="preserve">
<path fill="none" stroke="#3D3D3D" stroke-width="3" stroke-miterlimit="10" d="M54.6,20.6l8.7-7.5c2.2-1.6,2.4-5.1,0.8-7.3
	c-1.6-2.2-4.6-2.7-6.8-1.1L54.6,7"/>
<path fill="none" stroke="#3D3D3D" stroke-width="3" stroke-miterlimit="10" d="M54.6,36.1l13-10.9c2.2-1.6,2.5-5.1,1-7.3
	C67,15.6,64,15,61.8,16.6l-7.2,5.6"/>
<path fill="none" stroke="#3D3D3D" stroke-width="3" stroke-miterlimit="10" d="M54.6,61.8c5.6-3.3,10.7-7.4,10.7-7.4
	c2.3-1.7,4.2-3.7,3.6-6.4c-0.6-2.7-3.3-4.2-5.9-3.6l5.7-3.8c2.6-2,3.2-4.6,2-7.1c-1.4-2.5-4.1-3.5-6.5-2.2l-9.5,6.5"/>
<line fill="none" stroke="#3D3D3D" stroke-width="3" stroke-miterlimit="10" x1="54.6" y1="50" x2="63" y2="44.4"/>
<path fill="none" stroke="#3D3D3D" stroke-width="3" stroke-miterlimit="10" d="M17.9,37.5c0,0-1.6-29.5-11.7-25.6
	C0.7,14,8.4,36.5,3,49.9C-1,60,2.5,75.2,20.5,77.5c5.1,0.7,23.7-9.4,23.7-9.4"/>
<path fill="none" stroke="#3D3D3D" stroke-width="3" stroke-miterlimit="10" d="M48.6,1.5h-25c-3.1,0-5.7,2.7-5.7,6v54.9
	c0,3.2,2.6,5.8,5.7,5.8h25c3.1,0,5.9-2.6,5.9-5.8V7.5C54.6,4.2,51.8,1.5,48.6,1.5z"/>
<line fill="none" stroke="#3D3D3D" stroke-width="3" stroke-miterlimit="10" x1="17.9" y1="10.8" x2="54.3" y2="10.8"/>
<line fill="none" stroke="#3D3D3D" stroke-width="3" stroke-miterlimit="10" x1="17.9" y1="57.8" x2="54.3" y2="57.8"/>
</svg>
